<?xml version="1.0" encoding="UTF-8"?>
<svg version="1.1" xmlns="http://www.w3.org/2000/svg" width="314" height="316">
<path d="M0 0 C103.62 0 207.24 0 314 0 C314 104.28 314 208.56 314 316 C210.38 316 106.76 316 0 316 C0 211.72 0 107.44 0 0 Z " fill="#000000" transform="translate(0,0)"/>
<path d="M0 0 C14.28211388 -1.1375135 28.83076721 5.64615227 39.98828125 14.32421875 C44.00600687 16.55976258 45.91644744 15.9309142 50.3125 14.8125 C60.91740444 12.20836986 71.14157271 11.74539639 82.0625 11.6875 C82.76398163 11.68056122 83.46546326 11.67362244 84.1882019 11.66647339 C93.82665514 11.5933274 102.61846689 12.45701044 112.0625 14.5625 C118.65037352 15.9653366 123.35480672 16.71485699 129.375 13.31445312 C131.79114028 11.70117613 134.09058515 9.97258936 136.37255859 8.17578125 C140.41698721 5.25379382 145.34009597 3.68896085 150 2 C150.99128906 1.63003906 151.98257813 1.26007813 153.00390625 0.87890625 C155.97924143 0.00608954 158.29168378 -0.20833287 161.375 -0.125 C162.24898437 -0.10695313 163.12296875 -0.08890625 164.0234375 -0.0703125 C165.00183594 -0.03550781 165.00183594 -0.03550781 166 0 C169.36148865 8.3306458 170.1670612 15.87870212 170.125 24.8125 C170.12741699 25.7003418 170.12983398 26.58818359 170.13232422 27.50292969 C170.11987179 32.02067047 169.9045442 36.28850149 169.125 40.75 C168.79756348 43.4017746 168.75558064 44.55896285 170.05859375 46.91015625 C171.08733407 48.21144595 172.14936345 49.48691418 173.23828125 50.73828125 C185.52158835 66.50775976 184.42303989 88.021295 182.74365234 106.87841797 C180.69792555 122.53574227 173.09985385 138.0203218 161.17578125 148.4765625 C146.48824963 159.49722061 130.64070909 163.16654832 113 167 C113.40992188 167.59167969 113.81984375 168.18335938 114.2421875 168.79296875 C114.78101563 169.58316406 115.31984375 170.37335938 115.875 171.1875 C116.40867188 171.96480469 116.94234375 172.74210938 117.4921875 173.54296875 C121.22316567 179.62272333 122.09830069 185.70475812 122.18945312 192.75830078 C122.21452942 194.41999802 122.21452942 194.41999802 122.2401123 196.11526489 C122.26047546 197.88738846 122.26047546 197.88738846 122.28125 199.6953125 C122.29965942 200.92031464 122.31806885 202.14531677 122.33703613 203.40744019 C122.41555227 208.63889019 122.4835193 213.87046444 122.55224609 219.10205078 C122.60397635 222.92486918 122.66121178 226.74757782 122.71875 230.5703125 C122.73911316 232.34850876 122.73911316 232.34850876 122.7598877 234.16262817 C122.78496399 235.81486893 122.78496399 235.81486893 122.81054688 237.50048828 C122.82307495 238.46834259 122.83560303 239.4361969 122.84851074 240.43338013 C122.9365591 243.27027035 122.9365591 243.27027035 124 247 C96.94 247 69.88 247 42 247 C42.33 245.68 42.66 244.36 43 243 C43.14819068 240.68463068 43.24761977 238.36596189 43.31640625 236.046875 C43.33718735 235.38665344 43.35796844 234.72643188 43.37937927 234.04620361 C43.44450147 231.94756985 43.50358502 229.84881628 43.5625 227.75 C43.60572079 226.32290453 43.6493362 224.89582095 43.69335938 223.46875 C43.80014411 219.97929278 43.90151566 216.48970247 44 213 C43.20480957 213.14074951 42.40961914 213.28149902 41.59033203 213.42651367 C27.09145111 215.93054479 15.11744034 216.00357853 2.3828125 207.83984375 C-5.38308569 201.84355187 -8.92581298 194.25611823 -12.5078125 185.33984375 C-15.64032819 178.32858482 -20.43727711 173.13420947 -26.35546875 168.3515625 C-28.7413881 166.39068816 -30.85041579 164.21472312 -33 162 C-32.67 161.01 -32.34 160.02 -32 159 C-28.46448844 157.23224422 -24.86010192 157.48962178 -21 158 C-11.14711544 161.33919948 -5.5179312 167.5032992 -0.0625 176.0625 C3.34056265 181.31819522 6.59470487 184.85610385 12 188 C13.5778125 188.928125 13.5778125 188.928125 15.1875 189.875 C20.87713845 191.55390971 26.11834197 191.42452014 32 191 C33.01449219 190.96132813 34.02898437 190.92265625 35.07421875 190.8828125 C38.3994568 190.4382377 40.26311771 189.9716356 43 188 C45.27874576 184.23736743 46.46639387 180.08066053 47.68359375 175.8828125 C48.76362547 172.25580103 50.4109768 169.80340092 53 167 C52.01902344 166.84144531 51.03804688 166.68289062 50.02734375 166.51953125 C29.86333661 163.1013479 9.60395104 156.70160526 -3.25 139.75 C-16.89135657 119.74267702 -19.49915164 95.74227057 -16.609375 72.00390625 C-15.04752124 63.98438789 -10.74304893 52.08756875 -4.3605957 46.5871582 C-2.78610457 45.08214714 -2.78610457 45.08214714 -2.91479492 42.8996582 C-3.10199097 41.70602661 -3.10199097 41.70602661 -3.29296875 40.48828125 C-5.10681556 26.80378722 -5.44592304 12.8854429 0 0 Z " fill="#EDEDED" transform="translate(76,69)"/>
<path d="M0 0 C103.62 0 207.24 0 314 0 C314 43.23 314 86.46 314 131 C311.6778971 128.6778971 311.47401697 126.99344464 310.86083984 123.84790039 C305.14388402 94.67296261 288.27438322 69.11312376 268 48 C267.46213867 47.43804932 266.92427734 46.87609863 266.37011719 46.29711914 C262.37891074 42.20462156 258.2113745 38.59574448 253.625 35.1875 C252.93873535 34.67687012 252.2524707 34.16624023 251.54541016 33.64013672 C237.76740685 23.57747987 222.81506863 15.18160336 206.28125 10.640625 C204.56339001 10.15821226 202.86505778 9.60544252 201.1796875 9.01953125 C197.68583636 7.89926694 194.22448552 7.14626467 190.625 6.4375 C188.75714844 6.06431641 188.75714844 6.06431641 186.8515625 5.68359375 C178.11416985 4.13283948 169.60579766 3.78290043 160.74902344 3.75976562 C158.5328089 3.75014246 156.31755717 3.71908656 154.1015625 3.6875 C144.03662772 3.61413093 134.83658353 4.86188641 125 7 C123.14748413 7.3423888 121.29368807 7.67811342 119.4375 8 C116.0048153 8.60465639 113.0473461 9.79648769 109.86303711 11.20605469 C107.45253581 12.23330541 104.98419033 13.07892077 102.50976562 13.93798828 C82.46112059 21.01131917 65.28804422 33.37665336 50 48 C48.99453125 48.928125 48.99453125 48.928125 47.96875 49.875 C21.34890019 75.22723792 4.34494857 114.35239237 2.83886719 150.91137695 C2.81940348 152.27027775 2.80561533 153.62926917 2.796875 154.98828125 C2.78972473 155.72461288 2.78257446 156.46094452 2.77520752 157.21958923 C2.43625278 202.3972009 15.06830137 242.12242531 46 276 C46.763125 276.845625 47.52625 277.69125 48.3125 278.5625 C63.9885235 295.08587612 83.44018497 305.81307116 104 315 C104 315.33 104 315.66 104 316 C69.68 316 35.36 316 0 316 C0 211.72 0 107.44 0 0 Z " fill="#EEEEEE" transform="translate(0,0)"/>
<path d="M0 0 C0.33 0 0.66 0 1 0 C1 39.27 1 78.54 1 119 C-32 119 -65 119 -99 119 C-96.89893274 116.89893274 -95.32059896 116.11042656 -92.6328125 114.8984375 C-91.31277222 114.29298096 -91.31277222 114.29298096 -89.96606445 113.67529297 C-89.02851318 113.24619629 -88.09096191 112.81709961 -87.125 112.375 C-70.70603199 104.69885157 -57.2588315 94.31338002 -44 82 C-43.09314453 81.17435547 -43.09314453 81.17435547 -42.16796875 80.33203125 C-20.04284032 59.34683918 -7.1140003 29.12555419 0 0 Z " fill="#FDFDFD" transform="translate(313,197)"/>
<path d="M0 0 C3.0973061 2.89308812 5.31168215 5.85466468 7.5625 9.4375 C12.1684363 16.45322116 17.38910713 22.76793014 23 29 C23.76828125 29.85335938 24.5365625 30.70671875 25.328125 31.5859375 C41.02619421 48.0849286 60.43919857 58.81263039 81 68 C81 68.33 81 68.66 81 69 C46.68 69 12.36 69 -23 69 C-23 61.74 -23 54.48 -23 47 C-18.38 47 -13.76 47 -9 47 C-9 51.95 -9 56.9 -9 62 C-4.05 62 0.9 62 6 62 C6 57.05 6 52.1 6 47 C10.95 47 15.9 47 21 47 C21 42.05 21 37.1 21 32 C16.05 32 11.1 32 6 32 C6 27.05 6 22.1 6 17 C1.05 17 -3.9 17 -9 17 C-9 12.05 -9 7.1 -9 2 C-6.03 2 -3.06 2 0 2 C0 1.34 0 0.68 0 0 Z " fill="#FFFFFF" transform="translate(23,247)"/>
<path d="M0 0 C0.33 1.32 0.66 2.64 1 4 C5.29 4 9.58 4 14 4 C14 8.95 14 13.9 14 19 C18.95 19 23.9 19 29 19 C29 23.95 29 28.9 29 34 C33.95 34 38.9 34 44 34 C44 38.95 44 43.9 44 49 C48.95 49 53.9 49 59 49 C59 53.95 59 58.9 59 64 C54.05 64 49.1 64 44 64 C44 68.95 44 73.9 44 79 C39.05 79 34.1 79 29 79 C29 74.05 29 69.1 29 64 C24.05 64 19.1 64 14 64 C14 59.05 14 54.1 14 49 C9.05 49.495 9.05 49.495 4 50 C-0.52229109 39.31094833 -1.31934463 28.57461818 -1.1875 17.0625 C-1.18685547 15.96615234 -1.18621094 14.86980469 -1.18554688 13.74023438 C-1.15958022 9.0056475 -1.0527582 4.63266114 0 0 Z " fill="#FEFEFE" transform="translate(60,140)"/>
<path d="M0 0 C3.96 0 7.92 0 12 0 C11.34 0.66 10.68 1.32 10 2 C10.40992188 2.59167969 10.81984375 3.18335938 11.2421875 3.79296875 C11.78101563 4.58316406 12.31984375 5.37335938 12.875 6.1875 C13.40867187 6.96480469 13.94234375 7.74210938 14.4921875 8.54296875 C18.22316567 14.62272333 19.09830069 20.70475812 19.18945312 27.75830078 C19.20617065 28.86609894 19.22288818 29.97389709 19.2401123 31.11526489 C19.25368774 32.2966806 19.26726318 33.47809631 19.28125 34.6953125 C19.29965942 35.92031464 19.31806885 37.14531677 19.33703613 38.40744019 C19.41555227 43.63889019 19.4835193 48.87046444 19.55224609 54.10205078 C19.60397635 57.92486918 19.66121178 61.74757782 19.71875 65.5703125 C19.73232544 66.75577667 19.74590088 67.94124084 19.7598877 69.16262817 C19.77660522 70.26412201 19.79332275 71.36561584 19.81054688 72.50048828 C19.82307495 73.46834259 19.83560303 74.4361969 19.84851074 75.43338013 C19.9365591 78.27027035 19.9365591 78.27027035 21 82 C-6.06 82 -33.12 82 -61 82 C-60.67 80.68 -60.34 79.36 -60 78 C-59.85180932 75.68463068 -59.75238023 73.36596189 -59.68359375 71.046875 C-59.66281265 70.38665344 -59.64203156 69.72643188 -59.62062073 69.04620361 C-59.55549853 66.94756985 -59.49641498 64.84881628 -59.4375 62.75 C-59.39427921 61.32290453 -59.3506638 59.89582095 -59.30664062 58.46875 C-59.19985589 54.97929278 -59.09848434 51.48970247 -59 48 C-58.67 48 -58.34 48 -58 48 C-58 51.96 -58 55.92 -58 60 C-53.71 60 -49.42 60 -45 60 C-45 64.95 -45 69.9 -45 75 C-40.05 75 -35.1 75 -30 75 C-30 70.05 -30 65.1 -30 60 C-25.05 60 -20.1 60 -15 60 C-15 64.95 -15 69.9 -15 75 C-10.05 75 -5.1 75 0 75 C0 70.05 0 65.1 0 60 C4.95 60 9.9 60 15 60 C15 55.05 15 50.1 15 45 C10.05 45 5.1 45 0 45 C0 40.05 0 35.1 0 30 C4.95 30 9.9 30 15 30 C15 25.05 15 20.1 15 15 C10.05 15 5.1 15 0 15 C0 10.05 0 5.1 0 0 Z " fill="#FEFEFE" transform="translate(179,234)"/>
<path d="M0 0 C4.95 0 9.9 0 15 0 C15 4.95 15 9.9 15 15 C19.62 15 24.24 15 29 15 C25.60063775 19.11501745 22.09114373 22.91714517 18.25 26.625 C2.93706639 41.8462394 -7.21628511 60.48063357 -16 80 C-16.33 79.01 -16.66 78.02 -17 77 C-16.505 76.01 -16.505 76.01 -16 75 C-20.29 75 -24.58 75 -29 75 C-29 70.05 -29 65.1 -29 60 C-24.38 60 -19.76 60 -15 60 C-15 55.05 -15 50.1 -15 45 C-10.05 45 -5.1 45 0 45 C0 40.05 0 35.1 0 30 C-4.95 30 -9.9 30 -15 30 C-15 25.05 -15 20.1 -15 15 C-10.05 15 -5.1 15 0 15 C0 10.05 0 5.1 0 0 Z " fill="#FDFDFD" transform="translate(29,24)"/>
<path d="M0 0 C0 4.95 0 9.9 0 15 C4.95 15 9.9 15 15 15 C15 10.05 15 5.1 15 0 C19.95 0 24.9 0 30 0 C30 4.95 30 9.9 30 15 C34.95 15 39.9 15 45 15 C45 10.05 45 5.1 45 0 C49.95 0 54.9 0 60 0 C60 7.26 60 14.52 60 22 C27 22 -6 22 -40 22 C-37.89893274 19.89893274 -36.32059896 19.11042656 -33.6328125 17.8984375 C-32.31192627 17.29225586 -32.31192627 17.29225586 -30.96435547 16.67382812 C-30.02736816 16.24521484 -29.09038086 15.81660156 -28.125 15.375 C-19.85743658 11.52700887 -12.37378197 7.39158252 -5 2 C-2 0 -2 0 0 0 Z " fill="#FCFCFC" transform="translate(254,294)"/>
<path d="M0 0 C0 3.96 0 7.92 0 12 C4.95 12 9.9 12 15 12 C15 16.95 15 21.9 15 27 C10.05 27 5.1 27 0 27 C0 31.95 0 36.9 0 42 C-4.95 42 -9.9 42 -15 42 C-15 37.05 -15 32.1 -15 27 C-19.95 27 -24.9 27 -30 27 C-30 22.71 -30 18.42 -30 14 C-28.97648438 13.74992187 -27.95296875 13.49984375 -26.8984375 13.2421875 C-23.03413216 12.13671252 -19.99583474 10.33060792 -16.625 8.125 C-3.93795208 0 -3.93795208 0 0 0 Z " fill="#E6E6E6" transform="translate(224,72)"/>
<path d="M0 0 C3.0973061 2.89308812 5.31168215 5.85466468 7.5625 9.4375 C12.1684363 16.45322116 17.38910713 22.76793014 23 29 C23.76828125 29.85335938 24.5365625 30.70671875 25.328125 31.5859375 C32.23916907 38.84958585 40.20389942 44.70369435 48.25756836 50.62475586 C49.97428622 51.97970496 51.48772179 53.42266508 53 55 C52.34 55 51.68 55 51 55 C51 57.31 51 59.62 51 62 C46.05 62 41.1 62 36 62 C36 57.05 36 52.1 36 47 C31.05 47 26.1 47 21 47 C21 42.05 21 37.1 21 32 C16.05 32 11.1 32 6 32 C6 27.05 6 22.1 6 17 C1.05 17 -3.9 17 -9 17 C-9 12.05 -9 7.1 -9 2 C-6.03 2 -3.06 2 0 2 C0 1.34 0 0.68 0 0 Z " fill="#FDFDFD" transform="translate(23,247)"/>
<path d="M0 0 C4.95 0 9.9 0 15 0 C15 4.95 15 9.9 15 15 C19.95 15 24.9 15 30 15 C30 19.95 30 24.9 30 30 C34.95 30 39.9 30 45 30 C45 34.95 45 39.9 45 45 C33.48885473 46.19907763 33.48885473 46.19907763 29.671875 43.125 C27.64778541 40.49203793 25.83140319 37.76980813 24 35 C22.53337303 33.26293118 21.03289216 31.55388189 19.5 29.875 C18.75234375 29.05515625 18.0046875 28.2353125 17.234375 27.390625 C12.40416822 22.22264152 7.54236924 17.40129322 2 13 C-0.92332269 8.61501596 -0.1356502 5.2225328 0 0 Z " fill="#E6E6E6" transform="translate(254,24)"/>
<path d="M0 0 C9.85288456 3.33919948 15.4820688 9.5032992 20.9375 18.0625 C25.69703017 25.4273436 31.03806535 29.41712941 39 33 C38.01 33.33 37.02 33.66 36 34 C35.01 33.505 35.01 33.505 34 33 C34 34.32 34 35.64 34 37 C29.05 37 24.1 37 19 37 C19 32.05 19 27.1 19 22 C15.37 22 11.74 22 8 22 C7.67 22.66 7.34 23.32 7 24 C6.57589844 23.41992188 6.15179688 22.83984375 5.71484375 22.2421875 C2.34508158 17.75410866 -0.98951638 13.87980392 -5.35546875 10.3515625 C-7.7413881 8.39068816 -9.85041579 6.21472312 -12 4 C-11.67 3.01 -11.34 2.02 -11 1 C-7.46448844 -0.76775578 -3.86010192 -0.51037822 0 0 Z " fill="#FBFBFB" transform="translate(55,227)"/>
<path d="M0 0 C0.33 0 0.66 0 1 0 C1 17.16 1 34.32 1 52 C-3.95 52 -8.9 52 -14 52 C-14.33 50.35 -14.66 48.7 -15 47 C-15.99 47.495 -15.99 47.495 -17 48 C-15.87367687 44.21145856 -14.42431975 40.69436975 -12.75 37.125 C-7.22655199 25.10050257 -3.1374272 12.84499607 0 0 Z " fill="#FEFEFE" transform="translate(313,197)"/>
<path d="M0 0 C3.63 0 7.26 0 11 0 C11 4.95 11 9.9 11 15 C15.95 15 20.9 15 26 15 C26 19.95 26 24.9 26 30 C30.95 30 35.9 30 41 30 C41 31.65 41 33.3 41 35 C30.53171399 35.58157145 21.31086011 32.4337755 13 26 C6.66758323 19.7784837 2.58529581 12.47678721 0 4 C0 2.68 0 1.36 0 0 Z " fill="#E7E7E7" transform="translate(63,249)"/>
<path d="M0 0 C4.29 0 8.58 0 13 0 C11.83222595 6.18134247 10.45475859 12.22600007 8.79174805 18.29174805 C3.50889368 37.61334401 2.51410256 56.03568373 2 76 C1.34 76 0.68 76 0 76 C0 50.92 0 25.84 0 0 Z " fill="#E6E6E6" transform="translate(0,99)"/>
<path d="M0 0 C4.95 0 9.9 0 15 0 C15.33 3.3 15.66 6.6 16 10 C14.74509766 10.67482422 14.74509766 10.67482422 13.46484375 11.36328125 C5.8133258 15.56428879 -1.26667655 20.18246843 -8.19946289 25.4934082 C-12.80902931 29 -12.80902931 29 -15 29 C-15 24.38 -15 19.76 -15 15 C-10.05 15 -5.1 15 0 15 C0 10.05 0 5.1 0 0 Z " fill="#FCFCFC" transform="translate(74,9)"/>
<path d="M0 0 C0.33 0 0.66 0 1 0 C1.88224027 30.9191281 1.88224027 30.9191281 -3 43 C-6.05269846 44.52634923 -8.75845689 43.83794444 -12.125 43.5625 C-15.528125 43.2840625 -15.528125 43.2840625 -19 43 C-19 38.05 -19 33.1 -19 28 C-14.05 28 -9.1 28 -4 28 C-4 23.05 -4 18.1 -4 13 C-2.68 13 -1.36 13 0 13 C0 8.71 0 4.42 0 0 Z " fill="#FEFEFE" transform="translate(258,146)"/>
<path d="M0 0 C5.96557297 0.47530581 10.42731545 3.10580117 15.5625 5.9375 C22.60358293 9.84609877 22.60358293 9.84609877 30 13 C30 13.33 30 13.66 30 14 C15.15 14 0.3 14 -15 14 C-15 11.69 -15 9.38 -15 7 C-10.05 7 -5.1 7 0 7 C0 4.69 0 2.38 0 0 Z " fill="#FDFDFD" transform="translate(74,302)"/>
<path d="M0 0 C4.62 0 9.24 0 14 0 C14 0.66 14 1.32 14 2 C14.99 2.33 15.98 2.66 17 3 C21.29183947 11.46446118 19.9444634 20.93087555 19 30 C17.68 30 16.36 30 15 30 C15 25.05 15 20.1 15 15 C10.05 15 5.1 15 0 15 C0 10.05 0 5.1 0 0 Z " fill="#E5E5E5" transform="translate(239,129)"/>
<path d="M0 0 C4.95 0 9.9 0 15 0 C15 4.95 15 9.9 15 15 C19.95 15 24.9 15 30 15 C30.22786458 17.5390625 30.45572917 20.078125 30.68359375 22.6171875 C30.86989285 25.01110861 30.86989285 25.01110861 32 27 C28.10126345 25.23928027 24.69729358 22.78994142 21.1875 20.375 C13.7485178 15.32193188 6.01128225 11.06814049 -2 7 C-1.34 6.67 -0.68 6.34 0 6 C0 4.02 0 2.04 0 0 Z " fill="#FBFBFB" transform="translate(224,9)"/>
<path d="M0 0 C0.33 0 0.66 0 1 0 C1 4.62 1 9.24 1 14 C5.95 14 10.9 14 16 14 C16 18.95 16 23.9 16 29 C11.05 29 6.1 29 1 29 C-0.70353382 22.39880643 -1.19286343 16.22089972 -1.1875 9.4375 C-1.18814453 8.62748535 -1.18878906 7.8174707 -1.18945312 6.98291016 C-1.13480959 1.13480959 -1.13480959 1.13480959 0 0 Z " fill="#FDFDFD" transform="translate(73,85)"/>
<path d="M0 0 C0.66 0.33 1.32 0.66 2 1 C4.204364 1.22950319 6.41392173 1.41075933 8.625 1.5625 C10.72875 1.706875 12.8325 1.85125 15 2 C15 6.95 15 11.9 15 17 C10.05 17 5.1 17 0 17 C-0.19386492 14.35448944 -0.38038267 11.70882217 -0.5625 9.0625 C-0.61857422 8.30775391 -0.67464844 7.55300781 -0.73242188 6.77539062 C-0.86176157 4.85254042 -0.93516912 2.92610452 -1 1 C-0.67 0.67 -0.34 0.34 0 0 Z " fill="#E6E6E6" transform="translate(254,292)"/>
<path d="M0 0 C1.32 0.33 2.64 0.66 4 1 C5.91360971 1.21648378 7.83083621 1.40256968 9.75 1.5625 C12.34875 1.7790625 12.34875 1.7790625 15 2 C15 6.95 15 11.9 15 17 C10.05 17 5.1 17 0 17 C0 11.39 0 5.78 0 0 Z " fill="#E5E5E5" transform="translate(134,82)"/>
<path d="M0 0 C0.33 0.66 0.66 1.32 1 2 C6.28 2 11.56 2 17 2 C17 6.95 17 11.9 17 17 C12.05 17 7.1 17 2 17 C1.77213542 13.74479167 1.54427083 10.48958333 1.31640625 7.234375 C1.06752213 4.69022624 0.71885058 2.44046752 0 0 Z " fill="#E5E5E5" transform="translate(72,82)"/>
<path d="M0 0 C4.95 0 9.9 0 15 0 C15 5.28 15 10.56 15 16 C10.05 15.67 5.1 15.34 0 15 C0 10.05 0 5.1 0 0 Z " fill="#E5E5E5" transform="translate(179,219)"/>
<path d="M0 0 C4.95 0 9.9 0 15 0 C15.33 4.95 15.66 9.9 16 15 C12.94730154 16.52634923 10.24154311 15.83794444 6.875 15.5625 C4.60625 15.376875 2.3375 15.19125 0 15 C0 10.05 0 5.1 0 0 Z " fill="#E5E5E5" transform="translate(44,24)"/>
<path d="M0 0 C4.95 0 9.9 0 15 0 C15 4.95 15 9.9 15 15 C4.375 16.125 4.375 16.125 1 15 C-1.13079691 10.73840618 -0.04502317 4.59236298 0 0 Z " fill="#E5E5E5" transform="translate(119,219)"/>
<path d="M0 0 C4.95 0 9.9 0 15 0 C15 4.95 15 9.9 15 15 C10.05 15 5.1 15 0 15 C0 10.05 0 5.1 0 0 Z " fill="#FFFFFF" transform="translate(299,294)"/>
<path d="M0 0 C4.95 0 9.9 0 15 0 C15 4.95 15 9.9 15 15 C10.05 15 5.1 15 0 15 C0 10.05 0 5.1 0 0 Z " fill="#E6E6E6" transform="translate(284,294)"/>
<path d="M0 0 C4.95 0 9.9 0 15 0 C15 4.95 15 9.9 15 15 C10.05 15 5.1 15 0 15 C0 10.05 0 5.1 0 0 Z " fill="#FFFFFF" transform="translate(269,294)"/>
<path d="M0 0 C4.95 0 9.9 0 15 0 C15 4.95 15 9.9 15 15 C10.05 15 5.1 15 0 15 C0 10.05 0 5.1 0 0 Z " fill="#E6E6E6" transform="translate(164,294)"/>
<path d="M0 0 C4.95 0 9.9 0 15 0 C15 4.95 15 9.9 15 15 C10.05 15 5.1 15 0 15 C0 10.05 0 5.1 0 0 Z " fill="#FFFFFF" transform="translate(149,294)"/>
<path d="M0 0 C4.95 0 9.9 0 15 0 C15 4.95 15 9.9 15 15 C10.05 15 5.1 15 0 15 C0 10.05 0 5.1 0 0 Z " fill="#E6E6E6" transform="translate(134,294)"/>
<path d="M0 0 C4.95 0 9.9 0 15 0 C15 4.95 15 9.9 15 15 C10.05 15 5.1 15 0 15 C0 10.05 0 5.1 0 0 Z " fill="#E6E6E6" transform="translate(44,294)"/>
<path d="M0 0 C4.95 0 9.9 0 15 0 C15 4.95 15 9.9 15 15 C10.05 15 5.1 15 0 15 C0 10.05 0 5.1 0 0 Z " fill="#FFFFFF" transform="translate(29,294)"/>
<path d="M0 0 C4.95 0 9.9 0 15 0 C15 4.95 15 9.9 15 15 C10.05 15 5.1 15 0 15 C0 10.05 0 5.1 0 0 Z " fill="#E6E6E6" transform="translate(14,294)"/>
<path d="M0 0 C4.95 0 9.9 0 15 0 C15 4.95 15 9.9 15 15 C10.05 15 5.1 15 0 15 C0 10.05 0 5.1 0 0 Z " fill="#E6E6E6" transform="translate(299,279)"/>
<path d="M0 0 C4.95 0 9.9 0 15 0 C15 4.95 15 9.9 15 15 C10.05 15 5.1 15 0 15 C0 10.05 0 5.1 0 0 Z " fill="#FFFFFF" transform="translate(284,279)"/>
<path d="M0 0 C4.95 0 9.9 0 15 0 C15 4.95 15 9.9 15 15 C10.05 15 5.1 15 0 15 C0 10.05 0 5.1 0 0 Z " fill="#E6E6E6" transform="translate(179,279)"/>
<path d="M0 0 C4.95 0 9.9 0 15 0 C15 4.95 15 9.9 15 15 C10.05 15 5.1 15 0 15 C0 10.05 0 5.1 0 0 Z " fill="#FFFFFF" transform="translate(164,279)"/>
<path d="M0 0 C4.95 0 9.9 0 15 0 C15 4.95 15 9.9 15 15 C10.05 15 5.1 15 0 15 C0 10.05 0 5.1 0 0 Z " fill="#E6E6E6" transform="translate(149,279)"/>
<path d="M0 0 C4.95 0 9.9 0 15 0 C15 4.95 15 9.9 15 15 C10.05 15 5.1 15 0 15 C0 10.05 0 5.1 0 0 Z " fill="#FFFFFF" transform="translate(134,279)"/>
<path d="M0 0 C4.95 0 9.9 0 15 0 C15 4.95 15 9.9 15 15 C10.05 15 5.1 15 0 15 C0 10.05 0 5.1 0 0 Z " fill="#E6E6E6" transform="translate(29,279)"/>
<path d="M0 0 C4.95 0 9.9 0 15 0 C15 4.95 15 9.9 15 15 C10.05 15 5.1 15 0 15 C0 10.05 0 5.1 0 0 Z " fill="#FFFFFF" transform="translate(14,279)"/>
<path d="M0 0 C4.95 0 9.9 0 15 0 C15 4.95 15 9.9 15 15 C10.05 15 5.1 15 0 15 C0 10.05 0 5.1 0 0 Z " fill="#FFFFFF" transform="translate(299,264)"/>
<path d="M0 0 C4.95 0 9.9 0 15 0 C15 4.95 15 9.9 15 15 C10.05 15 5.1 15 0 15 C0 10.05 0 5.1 0 0 Z " fill="#E6E6E6" transform="translate(284,264)"/>
<path d="M0 0 C4.95 0 9.9 0 15 0 C15 4.95 15 9.9 15 15 C10.05 15 5.1 15 0 15 C0 10.05 0 5.1 0 0 Z " fill="#FFFFFF" transform="translate(179,264)"/>
<path d="M0 0 C4.95 0 9.9 0 15 0 C15 4.95 15 9.9 15 15 C10.05 15 5.1 15 0 15 C0 10.05 0 5.1 0 0 Z " fill="#E6E6E6" transform="translate(164,264)"/>
<path d="M0 0 C4.95 0 9.9 0 15 0 C15 4.95 15 9.9 15 15 C10.05 15 5.1 15 0 15 C0 10.05 0 5.1 0 0 Z " fill="#FFFFFF" transform="translate(149,264)"/>
<path d="M0 0 C4.95 0 9.9 0 15 0 C15 4.95 15 9.9 15 15 C10.05 15 5.1 15 0 15 C0 10.05 0 5.1 0 0 Z " fill="#E6E6E6" transform="translate(134,264)"/>
<path d="M0 0 C4.95 0 9.9 0 15 0 C15 4.95 15 9.9 15 15 C10.05 15 5.1 15 0 15 C0 10.05 0 5.1 0 0 Z " fill="#FFFFFF" transform="translate(119,264)"/>
<path d="M0 0 C4.95 0 9.9 0 15 0 C15 4.95 15 9.9 15 15 C10.05 15 5.1 15 0 15 C0 10.05 0 5.1 0 0 Z " fill="#FFFFFF" transform="translate(89,264)"/>
<path d="M0 0 C4.95 0 9.9 0 15 0 C15 4.95 15 9.9 15 15 C10.05 15 5.1 15 0 15 C0 10.05 0 5.1 0 0 Z " fill="#E6E6E6" transform="translate(14,264)"/>
<path d="M0 0 C4.95 0 9.9 0 15 0 C15 4.95 15 9.9 15 15 C10.05 15 5.1 15 0 15 C0 10.05 0 5.1 0 0 Z " fill="#E6E6E6" transform="translate(299,249)"/>
<path d="M0 0 C4.95 0 9.9 0 15 0 C15 4.95 15 9.9 15 15 C10.05 15 5.1 15 0 15 C0 10.05 0 5.1 0 0 Z " fill="#E6E6E6" transform="translate(179,249)"/>
<path d="M0 0 C4.95 0 9.9 0 15 0 C15 4.95 15 9.9 15 15 C10.05 15 5.1 15 0 15 C0 10.05 0 5.1 0 0 Z " fill="#FFFFFF" transform="translate(164,249)"/>
<path d="M0 0 C4.95 0 9.9 0 15 0 C15 4.95 15 9.9 15 15 C10.05 15 5.1 15 0 15 C0 10.05 0 5.1 0 0 Z " fill="#E6E6E6" transform="translate(149,249)"/>
<path d="M0 0 C4.95 0 9.9 0 15 0 C15 4.95 15 9.9 15 15 C10.05 15 5.1 15 0 15 C0 10.05 0 5.1 0 0 Z " fill="#FFFFFF" transform="translate(134,249)"/>
<path d="M0 0 C4.95 0 9.9 0 15 0 C15 4.95 15 9.9 15 15 C10.05 15 5.1 15 0 15 C0 10.05 0 5.1 0 0 Z " fill="#E6E6E6" transform="translate(164,234)"/>
<path d="M0 0 C4.95 0 9.9 0 15 0 C15 4.95 15 9.9 15 15 C10.05 15 5.1 15 0 15 C0 10.05 0 5.1 0 0 Z " fill="#FFFFFF" transform="translate(149,234)"/>
<path d="M0 0 C4.95 0 9.9 0 15 0 C15 4.95 15 9.9 15 15 C10.05 15 5.1 15 0 15 C0 10.05 0 5.1 0 0 Z " fill="#FFFFFF" transform="translate(164,219)"/>
<path d="M0 0 C4.95 0 9.9 0 15 0 C15 4.95 15 9.9 15 15 C10.05 15 5.1 15 0 15 C0 10.05 0 5.1 0 0 Z " fill="#E6E6E6" transform="translate(149,219)"/>
<path d="M0 0 C4.95 0 9.9 0 15 0 C15 4.95 15 9.9 15 15 C10.05 15 5.1 15 0 15 C0 10.05 0 5.1 0 0 Z " fill="#FFFFFF" transform="translate(134,219)"/>
<path d="M0 0 C4.95 0 9.9 0 15 0 C15 4.95 15 9.9 15 15 C10.05 15 5.1 15 0 15 C0 10.05 0 5.1 0 0 Z " fill="#FFFFFF" transform="translate(209,204)"/>
<path d="M0 0 C4.95 0 9.9 0 15 0 C15 4.95 15 9.9 15 15 C10.05 15 5.1 15 0 15 C0 10.05 0 5.1 0 0 Z " fill="#E6E6E6" transform="translate(194,204)"/>
<path d="M0 0 C4.95 0 9.9 0 15 0 C15 4.95 15 9.9 15 15 C10.05 15 5.1 15 0 15 C0 10.05 0 5.1 0 0 Z " fill="#FFFFFF" transform="translate(179,204)"/>
<path d="M0 0 C4.95 0 9.9 0 15 0 C15 4.95 15 9.9 15 15 C10.05 15 5.1 15 0 15 C0 10.05 0 5.1 0 0 Z " fill="#E6E6E6" transform="translate(164,204)"/>
<path d="M0 0 C4.95 0 9.9 0 15 0 C15 4.95 15 9.9 15 15 C10.05 15 5.1 15 0 15 C0 10.05 0 5.1 0 0 Z " fill="#FFFFFF" transform="translate(149,204)"/>
<path d="M0 0 C4.95 0 9.9 0 15 0 C15 4.95 15 9.9 15 15 C10.05 15 5.1 15 0 15 C0 10.05 0 5.1 0 0 Z " fill="#E6E6E6" transform="translate(134,204)"/>
<path d="M0 0 C4.95 0 9.9 0 15 0 C15 4.95 15 9.9 15 15 C10.05 15 5.1 15 0 15 C0 10.05 0 5.1 0 0 Z " fill="#FFFFFF" transform="translate(119,204)"/>
<path d="M0 0 C4.95 0 9.9 0 15 0 C15 4.95 15 9.9 15 15 C10.05 15 5.1 15 0 15 C0 10.05 0 5.1 0 0 Z " fill="#E6E6E6" transform="translate(104,204)"/>
<path d="M0 0 C4.95 0 9.9 0 15 0 C15 4.95 15 9.9 15 15 C10.05 15 5.1 15 0 15 C0 10.05 0 5.1 0 0 Z " fill="#FFFFFF" transform="translate(89,204)"/>
<path d="M0 0 C4.95 0 9.9 0 15 0 C15 4.95 15 9.9 15 15 C10.05 15 5.1 15 0 15 C0 10.05 0 5.1 0 0 Z " fill="#FFFFFF" transform="translate(224,189)"/>
<path d="M0 0 C4.95 0 9.9 0 15 0 C15 4.95 15 9.9 15 15 C10.05 15 5.1 15 0 15 C0 10.05 0 5.1 0 0 Z " fill="#E6E6E6" transform="translate(209,189)"/>
<path d="M0 0 C4.95 0 9.9 0 15 0 C15 4.95 15 9.9 15 15 C10.05 15 5.1 15 0 15 C0 10.05 0 5.1 0 0 Z " fill="#FFFFFF" transform="translate(194,189)"/>
<path d="M0 0 C4.95 0 9.9 0 15 0 C15 4.95 15 9.9 15 15 C10.05 15 5.1 15 0 15 C0 10.05 0 5.1 0 0 Z " fill="#E6E6E6" transform="translate(179,189)"/>
<path d="M0 0 C4.95 0 9.9 0 15 0 C15 4.95 15 9.9 15 15 C10.05 15 5.1 15 0 15 C0 10.05 0 5.1 0 0 Z " fill="#FFFFFF" transform="translate(164,189)"/>
<path d="M0 0 C4.95 0 9.9 0 15 0 C15 4.95 15 9.9 15 15 C10.05 15 5.1 15 0 15 C0 10.05 0 5.1 0 0 Z " fill="#E6E6E6" transform="translate(149,189)"/>
<path d="M0 0 C4.95 0 9.9 0 15 0 C15 4.95 15 9.9 15 15 C10.05 15 5.1 15 0 15 C0 10.05 0 5.1 0 0 Z " fill="#FFFFFF" transform="translate(134,189)"/>
<path d="M0 0 C4.95 0 9.9 0 15 0 C15 4.95 15 9.9 15 15 C10.05 15 5.1 15 0 15 C0 10.05 0 5.1 0 0 Z " fill="#E6E6E6" transform="translate(119,189)"/>
<path d="M0 0 C4.95 0 9.9 0 15 0 C15 4.95 15 9.9 15 15 C10.05 15 5.1 15 0 15 C0 10.05 0 5.1 0 0 Z " fill="#FFFFFF" transform="translate(104,189)"/>
<path d="M0 0 C4.95 0 9.9 0 15 0 C15 4.95 15 9.9 15 15 C10.05 15 5.1 15 0 15 C0 10.05 0 5.1 0 0 Z " fill="#E6E6E6" transform="translate(89,189)"/>
<path d="M0 0 C4.95 0 9.9 0 15 0 C15 4.95 15 9.9 15 15 C10.05 15 5.1 15 0 15 C0 10.05 0 5.1 0 0 Z " fill="#FFFFFF" transform="translate(74,189)"/>
<path d="M0 0 C4.95 0 9.9 0 15 0 C15 4.95 15 9.9 15 15 C10.05 15 5.1 15 0 15 C0 10.05 0 5.1 0 0 Z " fill="#E6E6E6" transform="translate(224,174)"/>
<path d="M0 0 C4.95 0 9.9 0 15 0 C15 4.95 15 9.9 15 15 C10.05 15 5.1 15 0 15 C0 10.05 0 5.1 0 0 Z " fill="#FFFFFF" transform="translate(209,174)"/>
<path d="M0 0 C4.95 0 9.9 0 15 0 C15 4.95 15 9.9 15 15 C10.05 15 5.1 15 0 15 C0 10.05 0 5.1 0 0 Z " fill="#E6E6E6" transform="translate(194,174)"/>
<path d="M0 0 C4.95 0 9.9 0 15 0 C15 4.95 15 9.9 15 15 C10.05 15 5.1 15 0 15 C0 10.05 0 5.1 0 0 Z " fill="#FFFFFF" transform="translate(179,174)"/>
<path d="M0 0 C4.95 0 9.9 0 15 0 C15 4.95 15 9.9 15 15 C10.05 15 5.1 15 0 15 C0 10.05 0 5.1 0 0 Z " fill="#E6E6E6" transform="translate(164,174)"/>
<path d="M0 0 C4.95 0 9.9 0 15 0 C15 4.95 15 9.9 15 15 C10.05 15 5.1 15 0 15 C0 10.05 0 5.1 0 0 Z " fill="#FFFFFF" transform="translate(149,174)"/>
<path d="M0 0 C4.95 0 9.9 0 15 0 C15 4.95 15 9.9 15 15 C10.05 15 5.1 15 0 15 C0 10.05 0 5.1 0 0 Z " fill="#E6E6E6" transform="translate(134,174)"/>
<path d="M0 0 C4.95 0 9.9 0 15 0 C15 4.95 15 9.9 15 15 C10.05 15 5.1 15 0 15 C0 10.05 0 5.1 0 0 Z " fill="#FFFFFF" transform="translate(119,174)"/>
<path d="M0 0 C4.95 0 9.9 0 15 0 C15 4.95 15 9.9 15 15 C10.05 15 5.1 15 0 15 C0 10.05 0 5.1 0 0 Z " fill="#E6E6E6" transform="translate(104,174)"/>
<path d="M0 0 C4.95 0 9.9 0 15 0 C15 4.95 15 9.9 15 15 C10.05 15 5.1 15 0 15 C0 10.05 0 5.1 0 0 Z " fill="#FFFFFF" transform="translate(89,174)"/>
<path d="M0 0 C4.95 0 9.9 0 15 0 C15 4.95 15 9.9 15 15 C10.05 15 5.1 15 0 15 C0 10.05 0 5.1 0 0 Z " fill="#E6E6E6" transform="translate(74,174)"/>
<path d="M0 0 C4.95 0 9.9 0 15 0 C15 4.95 15 9.9 15 15 C10.05 15 5.1 15 0 15 C0 10.05 0 5.1 0 0 Z " fill="#E6E6E6" transform="translate(239,159)"/>
<path d="M0 0 C4.95 0 9.9 0 15 0 C15 4.95 15 9.9 15 15 C10.05 15 5.1 15 0 15 C0 10.05 0 5.1 0 0 Z " fill="#FFFFFF" transform="translate(224,159)"/>
<path d="M0 0 C4.95 0 9.9 0 15 0 C15 4.95 15 9.9 15 15 C10.05 15 5.1 15 0 15 C0 10.05 0 5.1 0 0 Z " fill="#E6E6E6" transform="translate(209,159)"/>
<path d="M0 0 C4.95 0 9.9 0 15 0 C15 4.95 15 9.9 15 15 C10.05 15 5.1 15 0 15 C0 10.05 0 5.1 0 0 Z " fill="#FFFFFF" transform="translate(194,159)"/>
<path d="M0 0 C4.95 0 9.9 0 15 0 C15 4.95 15 9.9 15 15 C10.05 15 5.1 15 0 15 C0 10.05 0 5.1 0 0 Z " fill="#E6E6E6" transform="translate(179,159)"/>
<path d="M0 0 C4.95 0 9.9 0 15 0 C15 4.95 15 9.9 15 15 C10.05 15 5.1 15 0 15 C0 10.05 0 5.1 0 0 Z " fill="#FFFFFF" transform="translate(164,159)"/>
<path d="M0 0 C4.95 0 9.9 0 15 0 C15 4.95 15 9.9 15 15 C10.05 15 5.1 15 0 15 C0 10.05 0 5.1 0 0 Z " fill="#E6E6E6" transform="translate(149,159)"/>
<path d="M0 0 C4.95 0 9.9 0 15 0 C15 4.95 15 9.9 15 15 C10.05 15 5.1 15 0 15 C0 10.05 0 5.1 0 0 Z " fill="#FFFFFF" transform="translate(134,159)"/>
<path d="M0 0 C4.95 0 9.9 0 15 0 C15 4.95 15 9.9 15 15 C10.05 15 5.1 15 0 15 C0 10.05 0 5.1 0 0 Z " fill="#E6E6E6" transform="translate(119,159)"/>
<path d="M0 0 C4.95 0 9.9 0 15 0 C15 4.95 15 9.9 15 15 C10.05 15 5.1 15 0 15 C0 10.05 0 5.1 0 0 Z " fill="#FFFFFF" transform="translate(104,159)"/>
<path d="M0 0 C4.95 0 9.9 0 15 0 C15 4.95 15 9.9 15 15 C10.05 15 5.1 15 0 15 C0 10.05 0 5.1 0 0 Z " fill="#E6E6E6" transform="translate(89,159)"/>
<path d="M0 0 C4.95 0 9.9 0 15 0 C15 4.95 15 9.9 15 15 C10.05 15 5.1 15 0 15 C0 10.05 0 5.1 0 0 Z " fill="#FFFFFF" transform="translate(74,159)"/>
<path d="M0 0 C4.95 0 9.9 0 15 0 C15 4.95 15 9.9 15 15 C10.05 15 5.1 15 0 15 C0 10.05 0 5.1 0 0 Z " fill="#FFFFFF" transform="translate(239,144)"/>
<path d="M0 0 C4.95 0 9.9 0 15 0 C15 4.95 15 9.9 15 15 C10.05 15 5.1 15 0 15 C0 10.05 0 5.1 0 0 Z " fill="#E6E6E6" transform="translate(224,144)"/>
<path d="M0 0 C4.95 0 9.9 0 15 0 C15 4.95 15 9.9 15 15 C10.05 15 5.1 15 0 15 C0 10.05 0 5.1 0 0 Z " fill="#FFFFFF" transform="translate(209,144)"/>
<path d="M0 0 C4.95 0 9.9 0 15 0 C15 4.95 15 9.9 15 15 C10.05 15 5.1 15 0 15 C0 10.05 0 5.1 0 0 Z " fill="#E6E6E6" transform="translate(194,144)"/>
<path d="M0 0 C4.95 0 9.9 0 15 0 C15 4.95 15 9.9 15 15 C10.05 15 5.1 15 0 15 C0 10.05 0 5.1 0 0 Z " fill="#FFFFFF" transform="translate(179,144)"/>
<path d="M0 0 C4.95 0 9.9 0 15 0 C15 4.95 15 9.9 15 15 C10.05 15 5.1 15 0 15 C0 10.05 0 5.1 0 0 Z " fill="#E6E6E6" transform="translate(164,144)"/>
<path d="M0 0 C4.95 0 9.9 0 15 0 C15 4.95 15 9.9 15 15 C10.05 15 5.1 15 0 15 C0 10.05 0 5.1 0 0 Z " fill="#FFFFFF" transform="translate(149,144)"/>
<path d="M0 0 C4.95 0 9.9 0 15 0 C15 4.95 15 9.9 15 15 C10.05 15 5.1 15 0 15 C0 10.05 0 5.1 0 0 Z " fill="#E6E6E6" transform="translate(134,144)"/>
<path d="M0 0 C4.95 0 9.9 0 15 0 C15 4.95 15 9.9 15 15 C10.05 15 5.1 15 0 15 C0 10.05 0 5.1 0 0 Z " fill="#FFFFFF" transform="translate(119,144)"/>
<path d="M0 0 C4.95 0 9.9 0 15 0 C15 4.95 15 9.9 15 15 C10.05 15 5.1 15 0 15 C0 10.05 0 5.1 0 0 Z " fill="#E6E6E6" transform="translate(104,144)"/>
<path d="M0 0 C4.95 0 9.9 0 15 0 C15 4.95 15 9.9 15 15 C10.05 15 5.1 15 0 15 C0 10.05 0 5.1 0 0 Z " fill="#FFFFFF" transform="translate(89,144)"/>
<path d="M0 0 C4.95 0 9.9 0 15 0 C15 4.95 15 9.9 15 15 C10.05 15 5.1 15 0 15 C0 10.05 0 5.1 0 0 Z " fill="#E6E6E6" transform="translate(74,144)"/>
<path d="M0 0 C4.95 0 9.9 0 15 0 C15 4.95 15 9.9 15 15 C10.05 15 5.1 15 0 15 C0 10.05 0 5.1 0 0 Z " fill="#FFFFFF" transform="translate(224,129)"/>
<path d="M0 0 C4.95 0 9.9 0 15 0 C15 4.95 15 9.9 15 15 C10.05 15 5.1 15 0 15 C0 10.05 0 5.1 0 0 Z " fill="#E6E6E6" transform="translate(209,129)"/>
<path d="M0 0 C4.95 0 9.9 0 15 0 C15 4.95 15 9.9 15 15 C10.05 15 5.1 15 0 15 C0 10.05 0 5.1 0 0 Z " fill="#FFFFFF" transform="translate(194,129)"/>
<path d="M0 0 C4.95 0 9.9 0 15 0 C15 4.95 15 9.9 15 15 C10.05 15 5.1 15 0 15 C0 10.05 0 5.1 0 0 Z " fill="#E6E6E6" transform="translate(179,129)"/>
<path d="M0 0 C4.95 0 9.9 0 15 0 C15 4.95 15 9.9 15 15 C10.05 15 5.1 15 0 15 C0 10.05 0 5.1 0 0 Z " fill="#FFFFFF" transform="translate(164,129)"/>
<path d="M0 0 C4.95 0 9.9 0 15 0 C15 4.95 15 9.9 15 15 C10.05 15 5.1 15 0 15 C0 10.05 0 5.1 0 0 Z " fill="#E6E6E6" transform="translate(149,129)"/>
<path d="M0 0 C4.95 0 9.9 0 15 0 C15 4.95 15 9.9 15 15 C10.05 15 5.1 15 0 15 C0 10.05 0 5.1 0 0 Z " fill="#FFFFFF" transform="translate(134,129)"/>
<path d="M0 0 C4.95 0 9.9 0 15 0 C15 4.95 15 9.9 15 15 C10.05 15 5.1 15 0 15 C0 10.05 0 5.1 0 0 Z " fill="#E6E6E6" transform="translate(119,129)"/>
<path d="M0 0 C4.95 0 9.9 0 15 0 C15 4.95 15 9.9 15 15 C10.05 15 5.1 15 0 15 C0 10.05 0 5.1 0 0 Z " fill="#FFFFFF" transform="translate(104,129)"/>
<path d="M0 0 C4.95 0 9.9 0 15 0 C15 4.95 15 9.9 15 15 C10.05 15 5.1 15 0 15 C0 10.05 0 5.1 0 0 Z " fill="#E6E6E6" transform="translate(89,129)"/>
<path d="M0 0 C4.95 0 9.9 0 15 0 C15 4.95 15 9.9 15 15 C10.05 15 5.1 15 0 15 C0 10.05 0 5.1 0 0 Z " fill="#FFFFFF" transform="translate(74,129)"/>
<path d="M0 0 C4.95 0 9.9 0 15 0 C15 4.95 15 9.9 15 15 C10.05 15 5.1 15 0 15 C0 10.05 0 5.1 0 0 Z " fill="#E6E6E6" transform="translate(224,114)"/>
<path d="M0 0 C4.95 0 9.9 0 15 0 C15 4.95 15 9.9 15 15 C10.05 15 5.1 15 0 15 C0 10.05 0 5.1 0 0 Z " fill="#FFFFFF" transform="translate(209,114)"/>
<path d="M0 0 C4.95 0 9.9 0 15 0 C15 4.95 15 9.9 15 15 C10.05 15 5.1 15 0 15 C0 10.05 0 5.1 0 0 Z " fill="#E6E6E6" transform="translate(194,114)"/>
<path d="M0 0 C4.95 0 9.9 0 15 0 C15 4.95 15 9.9 15 15 C10.05 15 5.1 15 0 15 C0 10.05 0 5.1 0 0 Z " fill="#FFFFFF" transform="translate(179,114)"/>
<path d="M0 0 C4.95 0 9.9 0 15 0 C15 4.95 15 9.9 15 15 C10.05 15 5.1 15 0 15 C0 10.05 0 5.1 0 0 Z " fill="#E6E6E6" transform="translate(164,114)"/>
<path d="M0 0 C4.95 0 9.9 0 15 0 C15 4.95 15 9.9 15 15 C10.05 15 5.1 15 0 15 C0 10.05 0 5.1 0 0 Z " fill="#FFFFFF" transform="translate(149,114)"/>
<path d="M0 0 C4.95 0 9.9 0 15 0 C15 4.95 15 9.9 15 15 C10.05 15 5.1 15 0 15 C0 10.05 0 5.1 0 0 Z " fill="#E6E6E6" transform="translate(134,114)"/>
<path d="M0 0 C4.95 0 9.9 0 15 0 C15 4.95 15 9.9 15 15 C10.05 15 5.1 15 0 15 C0 10.05 0 5.1 0 0 Z " fill="#FFFFFF" transform="translate(119,114)"/>
<path d="M0 0 C4.95 0 9.9 0 15 0 C15 4.95 15 9.9 15 15 C10.05 15 5.1 15 0 15 C0 10.05 0 5.1 0 0 Z " fill="#E6E6E6" transform="translate(104,114)"/>
<path d="M0 0 C4.95 0 9.9 0 15 0 C15 4.95 15 9.9 15 15 C10.05 15 5.1 15 0 15 C0 10.05 0 5.1 0 0 Z " fill="#FFFFFF" transform="translate(89,114)"/>
<path d="M0 0 C4.95 0 9.9 0 15 0 C15 4.95 15 9.9 15 15 C10.05 15 5.1 15 0 15 C0 10.05 0 5.1 0 0 Z " fill="#FFFFFF" transform="translate(224,99)"/>
<path d="M0 0 C4.95 0 9.9 0 15 0 C15 4.95 15 9.9 15 15 C10.05 15 5.1 15 0 15 C0 10.05 0 5.1 0 0 Z " fill="#E6E6E6" transform="translate(209,99)"/>
<path d="M0 0 C4.95 0 9.9 0 15 0 C15 4.95 15 9.9 15 15 C10.05 15 5.1 15 0 15 C0 10.05 0 5.1 0 0 Z " fill="#FFFFFF" transform="translate(194,99)"/>
<path d="M0 0 C4.95 0 9.9 0 15 0 C15 4.95 15 9.9 15 15 C10.05 15 5.1 15 0 15 C0 10.05 0 5.1 0 0 Z " fill="#E6E6E6" transform="translate(179,99)"/>
<path d="M0 0 C4.95 0 9.9 0 15 0 C15 4.95 15 9.9 15 15 C10.05 15 5.1 15 0 15 C0 10.05 0 5.1 0 0 Z " fill="#FFFFFF" transform="translate(164,99)"/>
<path d="M0 0 C4.95 0 9.9 0 15 0 C15 4.95 15 9.9 15 15 C10.05 15 5.1 15 0 15 C0 10.05 0 5.1 0 0 Z " fill="#E6E6E6" transform="translate(149,99)"/>
<path d="M0 0 C4.95 0 9.9 0 15 0 C15 4.95 15 9.9 15 15 C10.05 15 5.1 15 0 15 C0 10.05 0 5.1 0 0 Z " fill="#FFFFFF" transform="translate(134,99)"/>
<path d="M0 0 C4.95 0 9.9 0 15 0 C15 4.95 15 9.9 15 15 C10.05 15 5.1 15 0 15 C0 10.05 0 5.1 0 0 Z " fill="#E6E6E6" transform="translate(119,99)"/>
<path d="M0 0 C4.95 0 9.9 0 15 0 C15 4.95 15 9.9 15 15 C10.05 15 5.1 15 0 15 C0 10.05 0 5.1 0 0 Z " fill="#FFFFFF" transform="translate(104,99)"/>
<path d="M0 0 C4.95 0 9.9 0 15 0 C15 4.95 15 9.9 15 15 C10.05 15 5.1 15 0 15 C0 10.05 0 5.1 0 0 Z " fill="#E6E6E6" transform="translate(89,99)"/>
<path d="M0 0 C4.95 0 9.9 0 15 0 C15 4.95 15 9.9 15 15 C10.05 15 5.1 15 0 15 C0 10.05 0 5.1 0 0 Z " fill="#E6E6E6" transform="translate(224,84)"/>
<path d="M0 0 C4.95 0 9.9 0 15 0 C15 4.95 15 9.9 15 15 C10.05 15 5.1 15 0 15 C0 10.05 0 5.1 0 0 Z " fill="#FFFFFF" transform="translate(209,84)"/>
<path d="M0 0 C4.95 0 9.9 0 15 0 C15 4.95 15 9.9 15 15 C10.05 15 5.1 15 0 15 C0 10.05 0 5.1 0 0 Z " fill="#E6E6E6" transform="translate(164,84)"/>
<path d="M0 0 C4.95 0 9.9 0 15 0 C15 4.95 15 9.9 15 15 C10.05 15 5.1 15 0 15 C0 10.05 0 5.1 0 0 Z " fill="#FFFFFF" transform="translate(89,84)"/>
<path d="M0 0 C4.95 0 9.9 0 15 0 C15 4.95 15 9.9 15 15 C10.05 15 5.1 15 0 15 C0 10.05 0 5.1 0 0 Z " fill="#E6E6E6" transform="translate(299,69)"/>
<path d="M0 0 C4.95 0 9.9 0 15 0 C15 4.95 15 9.9 15 15 C10.05 15 5.1 15 0 15 C0 10.05 0 5.1 0 0 Z " fill="#FFFFFF" transform="translate(299,54)"/>
<path d="M0 0 C4.95 0 9.9 0 15 0 C15 4.95 15 9.9 15 15 C10.05 15 5.1 15 0 15 C0 10.05 0 5.1 0 0 Z " fill="#E6E6E6" transform="translate(14,54)"/>
<path d="M0 0 C4.95 0 9.9 0 15 0 C15 4.95 15 9.9 15 15 C10.05 15 5.1 15 0 15 C0 10.05 0 5.1 0 0 Z " fill="#E6E6E6" transform="translate(299,39)"/>
<path d="M0 0 C4.95 0 9.9 0 15 0 C15 4.95 15 9.9 15 15 C10.05 15 5.1 15 0 15 C0 10.05 0 5.1 0 0 Z " fill="#FFFFFF" transform="translate(284,39)"/>
<path d="M0 0 C4.95 0 9.9 0 15 0 C15 4.95 15 9.9 15 15 C10.05 15 5.1 15 0 15 C0 10.05 0 5.1 0 0 Z " fill="#FFFFFF" transform="translate(14,39)"/>
<path d="M0 0 C4.95 0 9.9 0 15 0 C15 4.95 15 9.9 15 15 C10.05 15 5.1 15 0 15 C0 10.05 0 5.1 0 0 Z " fill="#FFFFFF" transform="translate(299,24)"/>
<path d="M0 0 C4.95 0 9.9 0 15 0 C15 4.95 15 9.9 15 15 C10.05 15 5.1 15 0 15 C0 10.05 0 5.1 0 0 Z " fill="#E6E6E6" transform="translate(284,24)"/>
<path d="M0 0 C4.95 0 9.9 0 15 0 C15 4.95 15 9.9 15 15 C10.05 15 5.1 15 0 15 C0 10.05 0 5.1 0 0 Z " fill="#FFFFFF" transform="translate(269,24)"/>
<path d="M0 0 C4.95 0 9.9 0 15 0 C15 4.95 15 9.9 15 15 C10.05 15 5.1 15 0 15 C0 10.05 0 5.1 0 0 Z " fill="#FFFFFF" transform="translate(29,24)"/>
<path d="M0 0 C4.95 0 9.9 0 15 0 C15 4.95 15 9.9 15 15 C10.05 15 5.1 15 0 15 C0 10.05 0 5.1 0 0 Z " fill="#E6E6E6" transform="translate(14,24)"/>
<path d="M0 0 C4.95 0 9.9 0 15 0 C15 4.95 15 9.9 15 15 C10.05 15 5.1 15 0 15 C0 10.05 0 5.1 0 0 Z " fill="#E6E6E6" transform="translate(299,9)"/>
<path d="M0 0 C4.95 0 9.9 0 15 0 C15 4.95 15 9.9 15 15 C10.05 15 5.1 15 0 15 C0 10.05 0 5.1 0 0 Z " fill="#FFFFFF" transform="translate(284,9)"/>
<path d="M0 0 C4.95 0 9.9 0 15 0 C15 4.95 15 9.9 15 15 C10.05 15 5.1 15 0 15 C0 10.05 0 5.1 0 0 Z " fill="#E6E6E6" transform="translate(269,9)"/>
<path d="M0 0 C4.95 0 9.9 0 15 0 C15 4.95 15 9.9 15 15 C10.05 15 5.1 15 0 15 C0 10.05 0 5.1 0 0 Z " fill="#FFFFFF" transform="translate(254,9)"/>
<path d="M0 0 C4.95 0 9.9 0 15 0 C15 4.95 15 9.9 15 15 C10.05 15 5.1 15 0 15 C0 10.05 0 5.1 0 0 Z " fill="#E6E6E6" transform="translate(239,9)"/>
<path d="M0 0 C4.95 0 9.9 0 15 0 C15 4.95 15 9.9 15 15 C10.05 15 5.1 15 0 15 C0 10.05 0 5.1 0 0 Z " fill="#E6E6E6" transform="translate(59,9)"/>
<path d="M0 0 C4.95 0 9.9 0 15 0 C15 4.95 15 9.9 15 15 C10.05 15 5.1 15 0 15 C0 10.05 0 5.1 0 0 Z " fill="#FFFFFF" transform="translate(44,9)"/>
<path d="M0 0 C4.95 0 9.9 0 15 0 C15 4.95 15 9.9 15 15 C10.05 15 5.1 15 0 15 C0 10.05 0 5.1 0 0 Z " fill="#E6E6E6" transform="translate(29,9)"/>
<path d="M0 0 C4.95 0 9.9 0 15 0 C15 4.95 15 9.9 15 15 C10.05 15 5.1 15 0 15 C0 10.05 0 5.1 0 0 Z " fill="#FFFFFF" transform="translate(14,9)"/>
<path d="M0 0 C0.33 0 0.66 0 1 0 C1 12.21 1 24.42 1 37 C-2.63 37 -6.26 37 -10 37 C-9.65317473 30.17910298 -7.91064864 24.87953664 -5.34375 18.57421875 C-3.06668768 12.51749775 -1.55396003 6.27660952 0 0 Z " fill="#E5E5E5" transform="translate(313,197)"/>
<path d="M0 0 C4.98046875 0.09765625 4.98046875 0.09765625 9.9609375 0.1953125 C9.9609375 5.1453125 9.9609375 10.0953125 9.9609375 15.1953125 C5.0109375 15.1953125 0.0609375 15.1953125 -5.0390625 15.1953125 C-5.234375 5.234375 -5.234375 5.234375 -5.0390625 2.1953125 C-3.0390625 0.1953125 -3.0390625 0.1953125 0 0 Z " fill="#E6E6E6" transform="translate(274.0390625,278.8046875)"/>
<path d="M0 0 C4.95 0 9.9 0 15 0 C15.1953125 9.9609375 15.1953125 9.9609375 15 13 C13 15 13 15 9.9609375 15.1953125 C6.640625 15.13020833 3.3203125 15.06510417 0 15 C0 10.05 0 5.1 0 0 Z " fill="#E6E6E6" transform="translate(29,39)"/>
<path d="M0 0 C0 5.28 0 10.56 0 16 C-4.95 16 -9.9 16 -15 16 C-15.33 11.71 -15.66 7.42 -16 3 C-3.375 0 -3.375 0 0 0 Z " fill="#FEFEFE" transform="translate(134,83)"/>
<path d="M0 0 C4.62 0 9.24 0 14 0 C14.24927162 2.58281438 14.47499275 5.16412228 14.6875 7.75 C14.76033203 8.47960937 14.83316406 9.20921875 14.90820312 9.9609375 C15.17234629 13.37926075 15.28508387 15.51558309 13.51953125 18.515625 C13.01808594 19.00546875 12.51664063 19.4953125 12 20 C12.33 18.35 12.66 16.7 13 15 C8.71 15 4.42 15 0 15 C0 10.05 0 5.1 0 0 Z " fill="#FEFEFE" transform="translate(0,84)"/>
<path d="M0 0 C10.55808656 -0.3690205 10.55808656 -0.3690205 15 2 C14.01 2.495 14.01 2.495 13 3 C13 6.96 13 10.92 13 15 C7.72 15 2.44 15 -3 15 C-2.51573772 9.6731149 -1.93400486 5.02841263 0 0 Z " fill="#FCFCFC" transform="translate(76,69)"/>
<path d="M0 0 C4.95 0 9.9 0 15 0 C15.33 3.3 15.66 6.6 16 10 C16.99 10.33 17.98 10.66 19 11 C16.60612843 11.67449966 14.21030779 12.33976641 11.8125 13 C11.13896484 13.19078125 10.46542969 13.3815625 9.77148438 13.578125 C5.9469132 14.62288591 3.03123843 15 -1 15 C-0.67 10.05 -0.34 5.1 0 0 Z " fill="#FEFEFE" transform="translate(194,219)"/>
<path d="M0 0 C4.62 0 9.24 0 14 0 C14 4.95 14 9.9 14 15 C9.38 15 4.76 15 0 15 C0 10.05 0 5.1 0 0 Z " fill="#E6E6E6" transform="translate(0,279)"/>
<path d="M0 0 C4.62 0 9.24 0 14 0 C14 4.95 14 9.9 14 15 C9.38 15 4.76 15 0 15 C0 10.05 0 5.1 0 0 Z " fill="#FFFFFF" transform="translate(0,264)"/>
<path d="M0 0 C4.62 0 9.24 0 14 0 C14 4.95 14 9.9 14 15 C9.38 15 4.76 15 0 15 C0 10.05 0 5.1 0 0 Z " fill="#E6E6E6" transform="translate(0,249)"/>
<path d="M0 0 C4.62 0 9.24 0 14 0 C14 4.95 14 9.9 14 15 C9.38 15 4.76 15 0 15 C0 10.05 0 5.1 0 0 Z " fill="#FFFFFF" transform="translate(0,234)"/>
<path d="M0 0 C4.62 0 9.24 0 14 0 C14 4.95 14 9.9 14 15 C9.38 15 4.76 15 0 15 C0 10.05 0 5.1 0 0 Z " fill="#E6E6E6" transform="translate(0,69)"/>
<path d="M0 0 C4.62 0 9.24 0 14 0 C14 4.95 14 9.9 14 15 C9.38 15 4.76 15 0 15 C0 10.05 0 5.1 0 0 Z " fill="#FFFFFF" transform="translate(0,54)"/>
<path d="M0 0 C4.62 0 9.24 0 14 0 C14 4.95 14 9.9 14 15 C9.38 15 4.76 15 0 15 C0 10.05 0 5.1 0 0 Z " fill="#E6E6E6" transform="translate(0,39)"/>
<path d="M0 0 C4.62 0 9.24 0 14 0 C14 4.95 14 9.9 14 15 C9.38 15 4.76 15 0 15 C0 10.05 0 5.1 0 0 Z " fill="#FFFFFF" transform="translate(0,24)"/>
<path d="M0 0 C4.62 0 9.24 0 14 0 C14 4.95 14 9.9 14 15 C9.38 15 4.76 15 0 15 C0 10.05 0 5.1 0 0 Z " fill="#E6E6E6" transform="translate(0,9)"/>
<path d="M0 0 C3.63 0 7.26 0 11 0 C11 4.95 11 9.9 11 15 C6.05 15 1.1 15 -4 15 C-4 7.125 -4 7.125 -2 3 C-1.34 3 -0.68 3 0 3 C0 2.01 0 1.02 0 0 Z " fill="#E4E4E4" transform="translate(123,249)"/>
<path d="M0 0 C4.62 0 9.24 0 14 0 C14 4.95 14 9.9 14 15 C9.71 15 5.42 15 1 15 C-0.05127001 9.74364995 -0.07115708 5.33678117 0 0 Z " fill="#E6E6E6" transform="translate(60,159)"/>
<path d="M0 0 C4.95 0 9.9 0 15 0 C15 4.95 15 9.9 15 15 C10.71 15 6.42 15 2 15 C1.77213542 11.97265625 1.54427083 8.9453125 1.31640625 5.91796875 C1.09787539 2.94010095 1.09787539 2.94010095 0 0 Z " fill="#E6E6E6" transform="translate(119,279)"/>
<path d="M0 0 C4.95 0 9.9 0 15 0 C15.33 4.95 15.66 9.9 16 15 C9.65515584 13.85440314 3.96807541 12.43143813 -2 10 C-1.34 9.67 -0.68 9.34 0 9 C0 6.03 0 3.06 0 0 Z " fill="#FBFBFB" transform="translate(104,219)"/>
<path d="M0 0 C4.95 0 9.9 0 15 0 C15 4.95 15 9.9 15 15 C8.33845604 15.81808435 8.33845604 15.81808435 4.91015625 13.72265625 C2.22466025 11.30076722 0.26625041 9.3792251 -0.43359375 5.75390625 C-0.4375 3.5625 -0.4375 3.5625 0 0 Z " fill="#E6E6E6" transform="translate(269,39)"/>
<path d="M0 0 C3.50386447 1.38988244 6.74832109 3.09922736 10 5 C9.67 5.66 9.34 6.32 9 7 C7.35 7 5.7 7 4 7 C4 9.97 4 12.94 4 16 C0.32180832 16 -0.22382655 15.23156682 -2.875 12.8125 C-3.57367188 12.17828125 -4.27234375 11.5440625 -4.9921875 10.890625 C-7.38190904 8.64038137 -9.71497964 6.35642724 -12 4 C-11.67 3.01 -11.34 2.02 -11 1 C-7.47625654 -0.76187173 -3.84580691 -0.54361782 0 0 Z " fill="#F6F6F6" transform="translate(55,227)"/>
<path d="M0 0 C2.97 0 5.94 0 9 0 C9 4.95 9 9.9 9 15 C4.71 15 0.42 15 -4 15 C-4.26785714 5.89285714 -4.26785714 5.89285714 -2 2 C-1.34 2 -0.68 2 0 2 C0 1.34 0 0.68 0 0 Z " fill="#E6E6E6" transform="translate(65,129)"/>
<path d="M0 0 C2.97 0 5.94 0 9 0 C9 10.56 9 21.12 9 32 C6.14073191 29.14073191 5.92465961 25.77122217 5.125 21.9375 C3.86848609 16.17852817 2.48234608 10.97693909 -0.36328125 5.76171875 C-1 4 -1 4 0 0 Z " fill="#E6E6E6" transform="translate(305,99)"/>
<path d="M0 0 C0 4.95 0 9.9 0 15 C-4.95 15 -9.9 15 -15 15 C-15 10 -15 10 -13.6796875 8.33984375 C-13.08414063 7.87707031 -12.48859375 7.41429687 -11.875 6.9375 C-11.23949219 6.43863281 -10.60398438 5.93976563 -9.94921875 5.42578125 C-8.98435547 4.72001953 -8.98435547 4.72001953 -8 4 C-7.14341797 3.37158203 -7.14341797 3.37158203 -6.26953125 2.73046875 C-2.36196996 0 -2.36196996 0 0 0 Z " fill="#FEFEFE" transform="translate(254,294)"/>
<path d="M0 0 C4.95 0 9.9 0 15 0 C14 7 14 7 12.109375 8.55859375 C10.94148437 8.99365234 10.94148437 8.99365234 9.75 9.4375 C8.98171875 9.74558594 8.2134375 10.05367187 7.421875 10.37109375 C5 11 5 11 0 11 C0 7.37 0 3.74 0 0 Z " fill="#E6E6E6" transform="translate(209,219)"/>
<path d="M0 0 C4.95 0 9.9 0 15 0 C15 2.97 15 5.94 15 9 C10.05 9 5.1 9 0 9 C0 6.03 0 3.06 0 0 Z " fill="#FFFFFF" transform="translate(299,0)"/>
<path d="M0 0 C4.95 0 9.9 0 15 0 C15 2.97 15 5.94 15 9 C10.05 9 5.1 9 0 9 C0 6.03 0 3.06 0 0 Z " fill="#E6E6E6" transform="translate(284,0)"/>
<path d="M0 0 C4.95 0 9.9 0 15 0 C15 2.97 15 5.94 15 9 C10.05 9 5.1 9 0 9 C0 6.03 0 3.06 0 0 Z " fill="#FFFFFF" transform="translate(269,0)"/>
<path d="M0 0 C4.95 0 9.9 0 15 0 C15 2.97 15 5.94 15 9 C10.05 9 5.1 9 0 9 C0 6.03 0 3.06 0 0 Z " fill="#E6E6E6" transform="translate(254,0)"/>
<path d="M0 0 C4.95 0 9.9 0 15 0 C15 2.97 15 5.94 15 9 C10.05 9 5.1 9 0 9 C0 6.03 0 3.06 0 0 Z " fill="#FFFFFF" transform="translate(239,0)"/>
<path d="M0 0 C4.95 0 9.9 0 15 0 C15 2.97 15 5.94 15 9 C10.05 9 5.1 9 0 9 C0 6.03 0 3.06 0 0 Z " fill="#E6E6E6" transform="translate(224,0)"/>
<path d="M0 0 C4.95 0 9.9 0 15 0 C15 2.97 15 5.94 15 9 C10.05 9 5.1 9 0 9 C0 6.03 0 3.06 0 0 Z " fill="#FFFFFF" transform="translate(209,0)"/>
<path d="M0 0 C4.95 0 9.9 0 15 0 C15 2.97 15 5.94 15 9 C10.05 9 5.1 9 0 9 C0 6.03 0 3.06 0 0 Z " fill="#FFFFFF" transform="translate(89,0)"/>
<path d="M0 0 C4.95 0 9.9 0 15 0 C15 2.97 15 5.94 15 9 C10.05 9 5.1 9 0 9 C0 6.03 0 3.06 0 0 Z " fill="#E6E6E6" transform="translate(74,0)"/>
<path d="M0 0 C4.95 0 9.9 0 15 0 C15 2.97 15 5.94 15 9 C10.05 9 5.1 9 0 9 C0 6.03 0 3.06 0 0 Z " fill="#FFFFFF" transform="translate(59,0)"/>
<path d="M0 0 C4.95 0 9.9 0 15 0 C15 2.97 15 5.94 15 9 C10.05 9 5.1 9 0 9 C0 6.03 0 3.06 0 0 Z " fill="#E6E6E6" transform="translate(44,0)"/>
<path d="M0 0 C4.95 0 9.9 0 15 0 C15 2.97 15 5.94 15 9 C10.05 9 5.1 9 0 9 C0 6.03 0 3.06 0 0 Z " fill="#FFFFFF" transform="translate(29,0)"/>
<path d="M0 0 C2.64 0 5.28 0 8 0 C8 4.95 8 9.9 8 15 C4.37 15 0.74 15 -3 15 C-3.33 15.99 -3.66 16.98 -4 18 C-3.71601983 11.32646591 -0.92194468 7.28922815 3 2 C2.01 1.34 1.02 0.68 0 0 Z " fill="#FDFDFD" transform="translate(126,234)"/>
<path d="M0 0 C14.85 0 29.7 0 45 0 C45 0.66 45 1.32 45 2 C37.30494695 3.01909793 29.61885354 3.3229027 21.86889648 3.55761719 C19.67468852 3.62539574 17.48096833 3.70306369 15.28710938 3.78125 C13.88283145 3.82611792 12.47853497 3.87040951 11.07421875 3.9140625 C9.18062622 3.9752124 9.18062622 3.9752124 7.2487793 4.03759766 C4.57233637 4.00662357 2.52270485 3.81836688 0 3 C0 2.01 0 1.02 0 0 Z " fill="#E2E2E2" transform="translate(134,0)"/>
<path d="M0 0 C4.62 0 9.24 0 14 0 C14 2.97 14 5.94 14 9 C9.38 9 4.76 9 0 9 C0 6.03 0 3.06 0 0 Z " fill="#FFFFFF" transform="translate(0,0)"/>
<path d="M0 0 C2.475 0.495 2.475 0.495 5 1 C4.86722656 1.90234375 4.73445312 2.8046875 4.59765625 3.734375 C2.68055765 17.76833402 2.36928887 31.85443487 2 46 C1.34 46 0.68 46 0 46 C0 30.82 0 15.64 0 0 Z " fill="#DCDCDC" transform="translate(0,129)"/>
<path d="M0 0 C0.68659698 -0.00095673 1.37319397 -0.00191345 2.08059692 -0.00289917 C3.52785331 -0.00357712 4.9751128 -0.00174978 6.42236328 0.00244141 C8.61888592 0.00777866 10.81520256 0.00249185 13.01171875 -0.00390625 C14.42447961 -0.00324508 15.83724035 -0.00196311 17.25 0 C18.52214355 0.00112793 19.79428711 0.00225586 21.10498047 0.00341797 C24.75239851 0.13262072 28.16111788 0.54929849 31.7578125 1.1328125 C31.4278125 1.7928125 31.0978125 2.4528125 30.7578125 3.1328125 C16.2378125 3.1328125 1.7178125 3.1328125 -13.2421875 3.1328125 C-12.9121875 2.4728125 -12.5821875 1.8128125 -12.2421875 1.1328125 C-8.19275521 -0.05081004 -4.19444063 0.00372555 0 0 Z " fill="#F1F1F1" transform="translate(150.2421875,80.8671875)"/>
<path d="M0 0 C0.33 0 0.66 0 1 0 C1.05871491 4.29160791 1.09383483 8.58311058 1.125 12.875 C1.14175781 14.07898438 1.15851563 15.28296875 1.17578125 16.5234375 C1.25522597 31.14126569 1.25522597 31.14126569 -1 37 C-1.99 37.66 -2.98 38.32 -4 39 C-4 30.42 -4 21.84 -4 13 C-2.68 13 -1.36 13 0 13 C0 8.71 0 4.42 0 0 Z " fill="#FAFAFA" transform="translate(258,146)"/>
<path d="M0 0 C0.33 0 0.66 0 1 0 C0.42351925 7.35012956 -1.71046164 14.01424576 -4 21 C-5.65 20.67 -7.3 20.34 -9 20 C-9 15.05 -9 10.1 -9 5 C-6.36 5 -3.72 5 -1 5 C-0.67 3.35 -0.34 1.7 0 0 Z " fill="#F8F8F8" transform="translate(9,109)"/>
<path d="M0 0 C2.97 0 5.94 0 9 0 C9.061875 1.794375 9.061875 1.794375 9.125 3.625 C9.66938227 7.82345508 11.03784113 10.06864569 14.16796875 12.87890625 C17.36272558 14.8339067 20.29747415 14.87232669 24 15 C24.33 18.96 24.66 22.92 25 27 C21.27621043 23.33067171 17.71125277 19.5483668 14.1875 15.6875 C10.01440325 11.13197705 5.76982103 6.68787563 1.328125 2.390625 C0 1 0 1 0 0 Z " fill="#FDFDFD" transform="translate(260,39)"/>
<path d="M0 0 C-0.33 1.65 -0.66 3.3 -1 5 C-10.9 5 -20.8 5 -31 5 C-31 3.68 -31 2.36 -31 1 C-29.73285156 1.02320313 -28.46570313 1.04640625 -27.16015625 1.0703125 C-25.46094345 1.08908833 -23.7617242 1.10728657 -22.0625 1.125 C-21.23169922 1.14175781 -20.40089844 1.15851563 -19.54492188 1.17578125 C-14.40300634 1.21579616 -9.87107674 0.70679995 -4.90795898 -0.66455078 C-3 -1 -3 -1 0 0 Z " fill="#F9F9F9" transform="translate(120,259)"/>
<path d="M0 0 C1.66674321 2.91824244 2.2432008 4.97594379 2.1953125 8.328125 C2.18886719 9.12734375 2.18242187 9.9265625 2.17578125 10.75 C2.15902344 11.575 2.14226562 12.4 2.125 13.25 C2.11146484 14.51070312 2.11146484 14.51070312 2.09765625 15.796875 C2.07415817 17.86470604 2.03828908 19.93238995 2 22 C1.67 21.01 1.34 20.02 1 19 C-0.98 19 -2.96 19 -5 19 C-5 14.05 -5 9.1 -5 4 C-3.35 4 -1.7 4 0 4 C0 2.68 0 1.36 0 0 Z " fill="#FEFEFE" transform="translate(244,80)"/>
<path d="M0 0 C4.95 0 9.9 0 15 0 C15 2.31 15 4.62 15 7 C10.05 7 5.1 7 0 7 C0 4.69 0 2.38 0 0 Z " fill="#E6E6E6" transform="translate(299,309)"/>
<path d="M0 0 C4.95 0 9.9 0 15 0 C15 2.31 15 4.62 15 7 C10.05 7 5.1 7 0 7 C0 4.69 0 2.38 0 0 Z " fill="#FFFFFF" transform="translate(284,309)"/>
<path d="M0 0 C4.95 0 9.9 0 15 0 C15 2.31 15 4.62 15 7 C10.05 7 5.1 7 0 7 C0 4.69 0 2.38 0 0 Z " fill="#E6E6E6" transform="translate(269,309)"/>
<path d="M0 0 C4.95 0 9.9 0 15 0 C15 2.31 15 4.62 15 7 C10.05 7 5.1 7 0 7 C0 4.69 0 2.38 0 0 Z " fill="#FFFFFF" transform="translate(254,309)"/>
<path d="M0 0 C4.95 0 9.9 0 15 0 C15 2.31 15 4.62 15 7 C10.05 7 5.1 7 0 7 C0 4.69 0 2.38 0 0 Z " fill="#E6E6E6" transform="translate(239,309)"/>
<path d="M0 0 C4.95 0 9.9 0 15 0 C15 2.31 15 4.62 15 7 C10.05 7 5.1 7 0 7 C0 4.69 0 2.38 0 0 Z " fill="#E6E6E6" transform="translate(179,309)"/>
<path d="M0 0 C4.95 0 9.9 0 15 0 C15 2.31 15 4.62 15 7 C10.05 7 5.1 7 0 7 C0 4.69 0 2.38 0 0 Z " fill="#FFFFFF" transform="translate(164,309)"/>
<path d="M0 0 C4.95 0 9.9 0 15 0 C15 2.31 15 4.62 15 7 C10.05 7 5.1 7 0 7 C0 4.69 0 2.38 0 0 Z " fill="#E6E6E6" transform="translate(149,309)"/>
<path d="M0 0 C4.95 0 9.9 0 15 0 C15 2.31 15 4.62 15 7 C10.05 7 5.1 7 0 7 C0 4.69 0 2.38 0 0 Z " fill="#FFFFFF" transform="translate(134,309)"/>
<path d="M0 0 C4.95 0 9.9 0 15 0 C15 2.31 15 4.62 15 7 C10.05 7 5.1 7 0 7 C0 4.69 0 2.38 0 0 Z " fill="#E6E6E6" transform="translate(59,309)"/>
<path d="M0 0 C4.95 0 9.9 0 15 0 C15 2.31 15 4.62 15 7 C10.05 7 5.1 7 0 7 C0 4.69 0 2.38 0 0 Z " fill="#FFFFFF" transform="translate(44,309)"/>
<path d="M0 0 C4.95 0 9.9 0 15 0 C15 2.31 15 4.62 15 7 C10.05 7 5.1 7 0 7 C0 4.69 0 2.38 0 0 Z " fill="#E6E6E6" transform="translate(29,309)"/>
<path d="M0 0 C4.95 0 9.9 0 15 0 C15 2.31 15 4.62 15 7 C10.05 7 5.1 7 0 7 C0 4.69 0 2.38 0 0 Z " fill="#FFFFFF" transform="translate(14,309)"/>
<path d="M0 0 C0.66 0 1.32 0 2 0 C2.51139597 3.14408784 3.00696036 6.29048573 3.5 9.4375 C3.64308594 10.31599609 3.78617187 11.19449219 3.93359375 12.09960938 C4.81809002 17.80671625 5.14099827 23.22494572 5 29 C3.35 29 1.7 29 0 29 C0 19.43 0 9.86 0 0 Z " fill="#E3E3E3" transform="translate(0,175)"/>
<path d="M0 0 C4.29 0 8.58 0 13 0 C13 2.31 13 4.62 13 7 C7.72 7 2.44 7 -3 7 C-2.67 5.68 -2.34 4.36 -2 3 C-1.34 3 -0.68 3 0 3 C0 2.01 0 1.02 0 0 Z " fill="#E5E5E5" transform="translate(121,309)"/>
<path d="M0 0 C4.62 0 9.24 0 14 0 C14 2.31 14 4.62 14 7 C9.38 7 4.76 7 0 7 C0 4.69 0 2.38 0 0 Z " fill="#E6E6E6" transform="translate(0,309)"/>
<path d="M0 0 C4.95 0 9.9 0 15 0 C14.67 0.99 14.34 1.98 14 3 C13.34 3 12.68 3 12 3 C12 3.66 12 4.32 12 5 C10.56570999 5.67354499 9.12742943 6.33859701 7.6875 7 C6.48673828 7.556875 6.48673828 7.556875 5.26171875 8.125 C3 9 3 9 0 9 C0 6.03 0 3.06 0 0 Z " fill="#E7E7E7" transform="translate(89,9)"/>
<path d="M0 0 C4.95 0 9.9 0 15 0 C15 0.99 15 1.98 15 3 C16.32 3.33 17.64 3.66 19 4 C16.96040523 4.50838564 14.91820862 5.00633886 12.875 5.5 C11.73804688 5.7784375 10.60109375 6.056875 9.4296875 6.34375 C6.18533302 6.96453765 3.29185543 7.12006768 0 7 C0 4.69 0 2.38 0 0 Z " fill="#F9F9F9" transform="translate(119,0)"/>
<path d="M0 0 C0 4.95 0 9.9 0 15 C-2.97 15 -5.94 15 -9 15 C-9 15.66 -9 16.32 -9 17 C-9.66 16.67 -10.32 16.34 -11 16 C-9.90246546 13.89213229 -8.7973604 11.78886546 -7.6875 9.6875 C-7.37876953 9.09259766 -7.07003906 8.49769531 -6.75195312 7.88476562 C-2.56730098 0 -2.56730098 0 0 0 Z " fill="#FCFCFC" transform="translate(74,114)"/>
<path d="M0 0 C4.95 0 9.9 0 15 0 C15.33 1.98 15.66 3.96 16 6 C7.58432901 5.4237919 -0.67948259 4.38227951 -9 3 C-9 2.67 -9 2.34 -9 2 C-6.03 2 -3.06 2 0 2 C0 1.34 0 0.68 0 0 Z " fill="#F4F4F4" transform="translate(179,0)"/>
<path d="M0 0 C1.98 0 3.96 0 6 0 C7.59789351 4.95346987 6.28306814 9.13282415 5 14 C3.35 14.33 1.7 14.66 0 15 C0 10.05 0 5.1 0 0 Z " fill="#E5E5E5" transform="translate(239,99)"/>
<path d="M0 0 C0.33 0 0.66 0 1 0 C1 7.26 1 14.52 1 22 C-0.98 22 -2.96 22 -5 22 C-5 22.99 -5 23.98 -5 25 C-5.66 24.67 -6.32 24.34 -7 24 C-4.69 16.08 -2.38 8.16 0 0 Z " fill="#F7F7F7" transform="translate(313,197)"/>
<path d="M0 0 C3.63 0 7.26 0 11 0 C11 2.97 11 5.94 11 9 C7.25983417 9 6.54723807 8.0658409 3.8125 5.625 C3.09707031 4.99851563 2.38164063 4.37203125 1.64453125 3.7265625 C0 2 0 2 0 0 Z " fill="#E9E9E9" transform="translate(48,234)"/>
<path d="M0 0 C5.28137429 0.51525603 8.57221156 2.25477117 13 5 C12.67 5.66 12.34 6.32 12 7 C8.04 7 4.08 7 0 7 C0 4.69 0 2.38 0 0 Z " fill="#E6E6E6" transform="translate(74,302)"/>
<path d="M0 0 C4.95 0 9.9 0 15 0 C15.33 0.99 15.66 1.98 16 3 C10.72 3.66 5.44 4.32 0 5 C0 3.35 0 1.7 0 0 Z " fill="#FEFEFE" transform="translate(104,279)"/>
<path d="M0 0 C1.18224668 3.54674003 0.89329634 5.97522995 0.5625 9.6875 C0.46066406 10.86699219 0.35882813 12.04648438 0.25390625 13.26171875 C0.17011719 14.16535156 0.08632813 15.06898438 0 16 C-1.32 16 -2.64 16 -4 16 C-4 11.05 -4 6.1 -4 1 C-2.68 0.67 -1.36 0.34 0 0 Z " fill="#E2E2E2" transform="translate(258,143)"/>
<path d="M0 0 C4.95 0 9.9 0 15 0 C15 1.65 15 3.3 15 5 C5.29919137 5.16442049 5.29919137 5.16442049 2 4 C1.34 2.68 0.68 1.36 0 0 Z " fill="#DDDDDD" transform="translate(89,279)"/>
<path d="M0 0 C0.99 0.99 1.98 1.98 3 3 C3 3.66 3 4.32 3 5 C3.66 5 4.32 5 5 5 C5.84454356 8.37817425 6.10844919 10.67465243 5 14 C3.35 14 1.7 14 0 14 C0 9.38 0 4.76 0 0 Z " fill="#E3E3E3" transform="translate(239,70)"/>
<path d="M0 0 C1.98 0 3.96 0 6 0 C5.50269348 4.97306516 4.44697666 8.63799813 2 13 C1.34 13 0.68 13 0 13 C0 8.71 0 4.42 0 0 Z " fill="#E5E5E5" transform="translate(14,84)"/>
<path d="M0 0 C5.54050113 0.56825653 10.03715966 2.62886517 15 5 C15 5.33 15 5.66 15 6 C10.05 6 5.1 6 0 6 C0 4.02 0 2.04 0 0 Z " fill="#E8E8E8" transform="translate(89,310)"/>
<path d="M0 0 C2.64 0 5.28 0 8 0 C6.63312778 3.98671063 4.84804907 6.88494633 2 10 C1.34 10 0.68 10 0 10 C0 6.7 0 3.4 0 0 Z " fill="#FAFAFA" transform="translate(239,204)"/>
<path d="M0 0 C3.99012371 0.55989303 6.5255052 1.75669768 9.8125 4.0625 C10.60269531 4.61035156 11.39289063 5.15820312 12.20703125 5.72265625 C12.79871094 6.14417969 13.39039062 6.56570312 14 7 C11.27157939 8.36421031 9.39046682 7.87807211 6.375 7.5625 C5.37210937 7.46066406 4.36921875 7.35882813 3.3359375 7.25390625 C2.56507812 7.17011719 1.79421875 7.08632812 1 7 C0.67 4.69 0.34 2.38 0 0 Z " fill="#FAFAFA" transform="translate(103,77)"/>
<path d="M0 0 C0.33 0.66 0.66 1.32 1 2 C2.32 2 3.64 2 5 2 C5 7.61 5 13.22 5 19 C2.37013188 16.37013188 2.178728 14.23771675 1.375 10.625 C1.11460937 9.48289062 0.85421875 8.34078125 0.5859375 7.1640625 C0 4 0 4 0 0 Z " fill="#F6F6F6" transform="translate(309,112)"/>
<path d="M0 0 C4.95 0.33 9.9 0.66 15 1 C15 1.99 15 2.98 15 4 C10.05 4 5.1 4 0 4 C0 2.68 0 1.36 0 0 Z " fill="#E8E8E8" transform="translate(89,260)"/>
<path d="M0 0 C0.99 0 1.98 0 3 0 C3 4.95 3 9.9 3 15 C2.01 15 1.02 15 0 15 C0 10.05 0 5.1 0 0 Z " fill="#E6E6E6" transform="translate(194,294)"/>
<path d="M0 0 C0.99 0 1.98 0 3 0 C3 4.95 3 9.9 3 15 C2.01 15 1.02 15 0 15 C0 10.05 0 5.1 0 0 Z " fill="#E6E6E6" transform="translate(194,264)"/>
<path d="M0 0 C0.93134766 0.00322266 1.86269531 0.00644531 2.82226562 0.00976562 C4.26182617 0.02233398 4.26182617 0.02233398 5.73046875 0.03515625 C6.70951172 0.03966797 7.68855469 0.04417969 8.69726562 0.04882812 C11.10422986 0.06056941 13.51106732 0.07699206 15.91796875 0.09765625 C15.91796875 0.42765625 15.91796875 0.75765625 15.91796875 1.09765625 C10.96796875 1.09765625 6.01796875 1.09765625 0.91796875 1.09765625 C0.91796875 1.75765625 0.91796875 2.41765625 0.91796875 3.09765625 C-3.04203125 3.09765625 -7.00203125 3.09765625 -11.08203125 3.09765625 C-10.75203125 2.43765625 -10.42203125 1.77765625 -10.08203125 1.09765625 C-6.69726494 0.16449882 -3.49677687 -0.02145262 0 0 Z " fill="#FBFBFB" transform="translate(148.08203125,80.90234375)"/>
<path d="M0 0 C0.66 0 1.32 0 2 0 C3.99785435 4.1205746 4.17835515 7.45194365 4 12 C2.68 11.67 1.36 11.34 0 11 C0 7.37 0 3.74 0 0 Z " fill="#F5F5F5" transform="translate(254,133)"/>
<path d="M0 0 C2.97 0 5.94 0 9 0 C5.87378374 3.39417765 3.43458973 5.6062718 -1 7 C-0.67 4.69 -0.34 2.38 0 0 Z " fill="#FAFAFA" transform="translate(224,219)"/>
<path d="M0 0 C0.66 0 1.32 0 2 0 C2.33 5.28 2.66 10.56 3 16 C2.67 15.34 2.34 14.68 2 14 C1.34 14 0.68 14 0 14 C0 9.38 0 4.76 0 0 Z " fill="#FBFBFB" transform="translate(0,175)"/>
<path d="M0 0 C1.41377341 2.63904371 2.37240135 5.07120629 3 8 C1.02 8 -0.96 8 -3 8 C-3 5.69 -3 3.38 -3 1 C-2.01 0.67 -1.02 0.34 0 0 Z " fill="#F9F9F9" transform="translate(197,308)"/>
<path d="M0 0 C1.65 0 3.3 0 5 0 C5.103125 1.0725 5.20625 2.145 5.3125 3.25 C5.97400493 6.85820872 6.57483421 8.36395023 9 11 C4.55092795 9.51697598 2.25420608 5.91714499 0 2 C0 1.34 0 0.68 0 0 Z " fill="#F2F2F2" transform="translate(69,264)"/>
<path d="M0 0 C0.66 0.33 1.32 0.66 2 1 C1.67 2.65 1.34 4.3 1 6 C-1.31 6 -3.62 6 -6 6 C-6.33 5.34 -6.66 4.68 -7 4 C-1.7265625 0.77734375 -1.7265625 0.77734375 0 0 Z " fill="#E6E6E6" transform="translate(238,303)"/>
<path d="M0 0 C0.99 0 1.98 0 3 0 C4.10493755 3.31481265 4.05432279 5.66131116 3 9 C2.01 9.66 1.02 10.32 0 11 C0 7.37 0 3.74 0 0 Z " fill="#E4E4E4" transform="translate(254,174)"/>
<path d="M0 0 C0.66 0.33 1.32 0.66 2 1 C1.67 2.32 1.34 3.64 1 5 C-2.3 5 -5.6 5 -9 5 C-6.32239719 2.32239719 -3.52050129 1.32018799 0 0 Z " fill="#EAEAEA" transform="translate(223,311)"/>
<path d="M0 0 C1.98 0.99 1.98 0.99 4 2 C4 3.32 4 4.64 4 6 C2.68 6 1.36 6 0 6 C0 4.02 0 2.04 0 0 Z " fill="#E8E8E8" transform="translate(29,258)"/>
<path d="M0 0 C0 2.31 0 4.62 0 7 C-1.32 7 -2.64 7 -4 7 C-4.33 6.01 -4.66 5.02 -5 4 C-1.125 0 -1.125 0 0 0 Z " fill="#E5E5E5" transform="translate(299,242)"/>
<path d="M0 0 C0 1.32 0 2.64 0 4 C-2.64 4.33 -5.28 4.66 -8 5 C-3.16129032 0 -3.16129032 0 0 0 Z " fill="#F9F9F9" transform="translate(209,80)"/>
</svg>
